<svg xmlns="http://www.w3.org/2000/svg" width="92" height="72" fill="none" viewBox="0 0 92 72">
    <rect width="56.76" height="56.76" x="-4.187" y="35.949" fill="#007BFF" rx="10" transform="rotate(-45 -4.187 35.949)"/>
    <rect width="56.76" height="56.76" x="15.916" y="35.949" fill="#007BFF" fill-opacity=".4" rx="10" transform="rotate(-45 15.916 35.949)"/>
    <path fill="#fff" fill-rule="evenodd" d="M27.659 27.445c1.981-1.98 5.197-1.98 7.176-.001l.718-.715c.794-.793 2.12-.834 2.958-.095l9.16 8.079c.84.74.88 1.981.089 2.772L37.704 47.536c-.79.79-2.034.75-2.774-.089l-8.083-9.156c-.74-.839-.7-2.161.096-2.956l.716-.716c-1.982-1.98-1.98-5.195 0-7.174zM33.4 28.88c-1.188-1.187-3.118-1.187-4.307 0-1.187 1.187-1.188 3.117-.001 4.303L33.4 28.88zm-4.307 7.174l-.716.716c-.037.037-.04.143-.008.179l8 9.05 9.857-9.854-9.06-7.99c-.034-.03-.143-.027-.179.009l-.716.716 1.436 1.435c.396.396.396 1.038 0 1.434-.397.397-1.04.397-1.436 0l-1.435-1.434-4.307 4.304 1.436 1.435c.396.396.396 1.039 0 1.435-.397.396-1.04.396-1.436 0l-1.436-1.435z" clip-rule="evenodd"/>
</svg>
