<svg xmlns="http://www.w3.org/2000/svg" width="182" height="46" fill="none" viewBox="0 0 182 46">
    <path fill="#007BFF" fill-rule="evenodd" d="M14.615 18.757L28.757 4.615c2.344-2.343 6.143-2.343 8.486 0l14.142 14.142c2.343 2.344 2.343 6.142 0 8.486L37.243 41.385c-2.343 2.343-6.142 2.343-8.486 0L14.615 27.243c-2.343-2.343-2.343-6.142 0-8.486z" clip-rule="evenodd" opacity=".299"/>
    <path fill="#007BFF" fill-rule="evenodd" d="M2.615 18.757L16.757 4.615c2.344-2.343 6.142-2.343 8.486 0l14.142 14.142c2.343 2.344 2.343 6.142 0 8.486L25.243 41.385c-2.343 2.343-6.142 2.343-8.486 0L2.615 27.243C.272 24.9.272 21.1 2.615 18.757z" clip-rule="evenodd"/>
    <path fill="#fff" fill-rule="evenodd" d="M15.652 22.93l-.476.477c-.025.025-.027.096-.006.12l5.326 6.028 6.561-6.564-6.03-5.321c-.024-.02-.096-.018-.12.006l-.477.477.956.955c.264.264.264.692 0 .956s-.692.264-.956 0l-.955-.956-2.867 2.867.956.956c.264.264.264.691 0 .955s-.692.264-.956 0l-.956-.955z" clip-rule="evenodd" opacity=".33"/>
    <path fill="#fff" fill-rule="evenodd" d="M14.697 17.197c1.319-1.319 3.46-1.319 4.777-.001l.478-.476c.528-.528 1.41-.556 1.969-.063l6.098 5.38c.559.494.586 1.32.059 1.847l-6.694 6.694c-.527.526-1.354.499-1.847-.06l-5.38-6.097c-.494-.56-.466-1.44.063-1.97l.477-.476c-1.32-1.32-1.318-3.46 0-4.778zm3.822.955c-.79-.79-2.076-.79-2.867 0-.79.79-.79 2.076 0 2.866l2.867-2.866zm-2.867 4.779l-.476.476c-.025.025-.027.096-.006.12l5.326 6.028 6.56-6.564-6.03-5.321c-.023-.02-.095-.018-.119.006l-.477.476.956.956c.264.264.264.692 0 .956s-.692.264-.956 0l-.955-.956-2.867 2.867.956.956c.264.263.264.691 0 .955s-.692.264-.956 0l-.956-.955z" clip-rule="evenodd"/>
    <path fill="#363636" d="M78.152 33.004c-.064.088-.128.156-.192.204-.064.048-.152.072-.264.072-.12 0-.252-.048-.396-.144-.144-.104-.324-.216-.54-.336-.208-.12-.468-.228-.78-.324-.304-.104-.68-.156-1.128-.156-.6 0-1.128.108-1.584.324-.456.208-.84.512-1.152.912-.304.4-.536.884-.696 1.452-.152.568-.228 1.204-.228 1.908 0 .736.084 1.392.252 1.968.168.568.404 1.048.708 1.44.312.384.684.68 1.116.888.44.2.932.3 1.476.3.52 0 .948-.06 1.284-.18.336-.128.612-.268.828-.42.224-.152.408-.288.552-.408.152-.128.3-.192.444-.192.176 0 .312.068.408.204l.6.78c-.264.328-.564.608-.9.84-.336.232-.7.428-1.092.588-.384.152-.788.264-1.212.336-.424.072-.856.108-1.296.108-.76 0-1.468-.14-2.124-.42-.648-.28-1.212-.684-1.692-1.212-.48-.536-.856-1.192-1.128-1.968-.272-.776-.408-1.66-.408-2.652 0-.904.124-1.74.372-2.508.256-.768.624-1.428 1.104-1.98.488-.56 1.084-.996 1.788-1.308.712-.312 1.528-.468 2.448-.468.856 0 1.608.14 2.256.42.656.272 1.236.66 1.74 1.164l-.564.768zm8.634-2.352c.888 0 1.688.148 2.4.444.712.296 1.32.716 1.824 1.26s.888 1.204 1.152 1.98c.272.768.408 1.628.408 2.58 0 .96-.136 1.824-.408 2.592-.264.768-.648 1.424-1.152 1.968-.504.544-1.112.964-1.824 1.26-.712.288-1.512.432-2.4.432-.896 0-1.704-.144-2.424-.432-.712-.296-1.32-.716-1.824-1.26s-.892-1.2-1.164-1.968c-.264-.768-.396-1.632-.396-2.592 0-.952.132-1.812.396-2.58.272-.776.66-1.436 1.164-1.98.504-.544 1.112-.964 1.824-1.26.72-.296 1.528-.444 2.424-.444zm0 10.848c1.2 0 2.096-.4 2.688-1.2.592-.808.888-1.932.888-3.372 0-1.448-.296-2.576-.888-3.384-.592-.808-1.488-1.212-2.688-1.212-.608 0-1.14.104-1.596.312-.448.208-.824.508-1.128.9-.296.392-.52.876-.672 1.452-.144.568-.216 1.212-.216 1.932 0 1.44.296 2.564.888 3.372.6.8 1.508 1.2 2.724 1.2zm9.213 1.5V30.844h1.284c.304 0 .492.148.564.444l.156 1.248c.448-.552.952-1.004 1.512-1.356.56-.352 1.208-.528 1.944-.528.816 0 1.476.228 1.98.684.512.456.88 1.072 1.104 1.848.176-.44.4-.82.672-1.14.28-.32.592-.584.936-.792.344-.208.708-.36 1.092-.456.392-.096.788-.144 1.188-.144.64 0 1.208.104 1.704.312.504.2.928.496 1.272.888.352.392.62.876.804 1.452.184.568.276 1.22.276 1.956V43h-2.148v-7.74c0-.952-.208-1.672-.624-2.16-.416-.496-1.016-.744-1.8-.744-.352 0-.688.064-1.008.192-.312.12-.588.3-.828.54-.24.24-.432.544-.576.912-.136.36-.204.78-.204 1.26V43h-2.148v-7.74c0-.976-.196-1.704-.588-2.184-.392-.48-.964-.72-1.716-.72-.528 0-1.016.144-1.464.432-.448.28-.86.664-1.236 1.152V43H96zm20.455 0V30.844h1.284c.304 0 .492.148.564.444l.156 1.248c.448-.552.952-1.004 1.512-1.356.56-.352 1.208-.528 1.944-.528.816 0 1.476.228 1.98.684.512.456.88 1.072 1.104 1.848.176-.44.4-.82.672-1.14.28-.32.592-.584.936-.792.344-.208.708-.36 1.092-.456.392-.096.788-.144 1.188-.144.64 0 1.208.104 1.704.312.504.2.928.496 1.272.888.352.392.62.876.804 1.452.184.568.276 1.22.276 1.956V43h-2.148v-7.74c0-.952-.208-1.672-.624-2.16-.416-.496-1.016-.744-1.8-.744-.352 0-.688.064-1.008.192-.312.12-.588.3-.828.54-.24.24-.432.544-.576.912-.136.36-.204.78-.204 1.26V43h-2.148v-7.74c0-.976-.196-1.704-.588-2.184-.392-.48-.964-.72-1.716-.72-.528 0-1.016.144-1.464.432-.448.28-.86.664-1.236 1.152V43h-2.148zm28.59-7.404c0-.496-.072-.948-.216-1.356-.136-.416-.34-.772-.612-1.068-.264-.304-.588-.536-.972-.696-.384-.168-.82-.252-1.308-.252-1.024 0-1.836.3-2.436.9-.592.592-.96 1.416-1.104 2.472h6.648zm1.728 5.7c-.264.32-.58.6-.948.84-.368.232-.764.424-1.188.576-.416.152-.848.264-1.296.336-.448.08-.892.12-1.332.12-.84 0-1.616-.14-2.328-.42-.704-.288-1.316-.704-1.836-1.248-.512-.552-.912-1.232-1.2-2.04-.288-.808-.432-1.736-.432-2.784 0-.848.128-1.64.384-2.376.264-.736.64-1.372 1.128-1.908.488-.544 1.084-.968 1.788-1.272.704-.312 1.496-.468 2.376-.468.728 0 1.4.124 2.016.372.624.24 1.16.592 1.608 1.056.456.456.812 1.024 1.068 1.704.256.672.384 1.44.384 2.304 0 .336-.036.56-.108.672-.072.112-.208.168-.408.168h-8.124c.024.768.128 1.436.312 2.004.192.568.456 1.044.792 1.428.336.376.736.66 1.2.852.464.184.984.276 1.56.276.536 0 .996-.06 1.38-.18.392-.128.728-.264 1.008-.408.28-.144.512-.276.696-.396.192-.128.356-.192.492-.192.176 0 .312.068.408.204l.6.78zm5.564-8.016c.384-.832.856-1.48 1.416-1.944.56-.472 1.244-.708 2.052-.708.256 0 .5.028.732.084.24.056.452.144.636.264l-.156 1.596c-.048.2-.168.3-.36.3-.112 0-.276-.024-.492-.072-.216-.048-.46-.072-.732-.072-.384 0-.728.056-1.032.168-.296.112-.564.28-.804.504-.232.216-.444.488-.636.816-.184.32-.352.688-.504 1.104V43h-2.148V30.844h1.224c.232 0 .392.044.48.132.088.088.148.24.18.456l.144 1.848zm15.402-.276c-.064.088-.128.156-.192.204-.064.048-.152.072-.264.072-.12 0-.252-.048-.396-.144-.144-.104-.324-.216-.54-.336-.208-.12-.468-.228-.78-.324-.304-.104-.68-.156-1.128-.156-.6 0-1.128.108-1.584.324-.456.208-.84.512-1.152.912-.304.4-.536.884-.696 1.452-.152.568-.228 1.204-.228 1.908 0 .736.084 1.392.252 1.968.168.568.404 1.048.708 1.44.312.384.684.68 1.116.888.44.2.932.3 1.476.3.52 0 .948-.06 1.284-.18.336-.128.612-.268.828-.42.224-.152.408-.288.552-.408.152-.128.3-.192.444-.192.176 0 .312.068.408.204l.6.78c-.264.328-.564.608-.9.84-.336.232-.7.428-1.092.588-.384.152-.788.264-1.212.336-.424.072-.856.108-1.296.108-.76 0-1.468-.14-2.124-.42-.648-.28-1.212-.684-1.692-1.212-.48-.536-.856-1.192-1.128-1.968-.272-.776-.408-1.66-.408-2.652 0-.904.124-1.74.372-2.508.256-.768.624-1.428 1.104-1.98.488-.56 1.084-.996 1.788-1.308.712-.312 1.528-.468 2.448-.468.856 0 1.608.14 2.256.42.656.272 1.236.66 1.74 1.164l-.564.768zm11.646 2.592c0-.496-.072-.948-.216-1.356-.136-.416-.34-.772-.612-1.068-.264-.304-.588-.536-.972-.696-.384-.168-.82-.252-1.308-.252-1.024 0-1.836.3-2.436.9-.592.592-.96 1.416-1.104 2.472h6.648zm1.728 5.7c-.264.32-.58.6-.948.84-.368.232-.764.424-1.188.576-.416.152-.848.264-1.296.336-.448.08-.892.12-1.332.12-.84 0-1.616-.14-2.328-.42-.704-.288-1.316-.704-1.836-1.248-.512-.552-.912-1.232-1.2-2.04-.288-.808-.432-1.736-.432-2.784 0-.848.128-1.64.384-2.376.264-.736.64-1.372 1.128-1.908.488-.544 1.084-.968 1.788-1.272.704-.312 1.496-.468 2.376-.468.728 0 1.4.124 2.016.372.624.24 1.16.592 1.608 1.056.456.456.812 1.024 1.068 1.704.256.672.384 1.44.384 2.304 0 .336-.036.56-.108.672-.072.112-.208.168-.408.168h-8.124c.024.768.128 1.436.312 2.004.192.568.456 1.044.792 1.428.336.376.736.66 1.2.852.464.184.984.276 1.56.276.536 0 .996-.06 1.38-.18.392-.128.728-.264 1.008-.408.28-.144.512-.276.696-.396.192-.128.356-.192.492-.192.176 0 .312.068.408.204l.6.78z"/>
    <path fill="#007BFF" d="M80.096 21.336V24H69.932V6.648h3.228v14.688h6.936zm7.372-9.84c.912 0 1.74.148 2.484.444.752.296 1.392.716 1.92 1.26.536.544.948 1.208 1.236 1.992.288.784.432 1.66.432 2.628 0 .976-.144 1.856-.432 2.64-.288.784-.7 1.452-1.236 2.004-.528.552-1.168.976-1.92 1.272-.744.296-1.572.444-2.484.444-.92 0-1.756-.148-2.508-.444-.752-.296-1.396-.72-1.932-1.272-.528-.552-.94-1.22-1.236-2.004-.288-.784-.432-1.664-.432-2.64 0-.968.144-1.844.432-2.628.296-.784.708-1.448 1.236-1.992.536-.544 1.18-.964 1.932-1.26.752-.296 1.588-.444 2.508-.444zm0 10.404c1.024 0 1.78-.344 2.268-1.032.496-.688.744-1.696.744-3.024s-.248-2.34-.744-3.036c-.488-.696-1.244-1.044-2.268-1.044-1.04 0-1.812.352-2.316 1.056-.496.696-.744 1.704-.744 3.024s.248 2.328.744 3.024c.504.688 1.276 1.032 2.316 1.032zm14.501-10.404c.912 0 1.74.148 2.484.444.752.296 1.392.716 1.92 1.26.536.544.948 1.208 1.236 1.992.288.784.432 1.66.432 2.628 0 .976-.144 1.856-.432 2.64-.288.784-.7 1.452-1.236 2.004-.528.552-1.168.976-1.92 1.272-.744.296-1.572.444-2.484.444-.92 0-1.756-.148-2.508-.444-.752-.296-1.396-.72-1.932-1.272-.528-.552-.94-1.22-1.236-2.004-.288-.784-.432-1.664-.432-2.64 0-.968.144-1.844.432-2.628.296-.784.708-1.448 1.236-1.992.536-.544 1.18-.964 1.932-1.26.752-.296 1.588-.444 2.508-.444zm0 10.404c1.024 0 1.78-.344 2.268-1.032.496-.688.744-1.696.744-3.024s-.248-2.34-.744-3.036c-.488-.696-1.244-1.044-2.268-1.044-1.04 0-1.812.352-2.316 1.056-.496.696-.744 1.704-.744 3.024s.248 2.328.744 3.024c.504.688 1.276 1.032 2.316 1.032zm12.017-1.092c.336.408.7.696 1.092.864.4.168.832.252 1.296.252.448 0 .852-.084 1.212-.252.36-.168.664-.424.912-.768.256-.344.452-.776.588-1.296.136-.528.204-1.148.204-1.86 0-.72-.06-1.328-.18-1.824-.112-.504-.276-.912-.492-1.224-.216-.312-.48-.54-.792-.684-.304-.144-.652-.216-1.044-.216-.616 0-1.14.132-1.572.396-.432.256-.84.62-1.224 1.092v5.52zm-.156-7.44c.504-.568 1.076-1.028 1.716-1.38.64-.352 1.392-.528 2.256-.528.672 0 1.284.14 1.836.42.56.28 1.04.688 1.44 1.224.408.528.72 1.184.936 1.968.224.776.336 1.668.336 2.676 0 .92-.124 1.772-.372 2.556s-.604 1.464-1.068 2.04c-.456.576-1.012 1.028-1.668 1.356-.648.32-1.376.48-2.184.48-.688 0-1.276-.104-1.764-.312-.488-.216-.924-.512-1.308-.888v5.04h-2.964V11.688h1.812c.384 0 .636.18.756.54l.24 1.14z"/>
</svg>
