<svg xmlns="http://www.w3.org/2000/svg" width="385" height="286" fill="none" viewBox="0 0 385 286">
    <g clip-path="url(#prefix__clip0)" opacity=".6">
        <path fill="#007BFF" d="M374.878 166.873c-11.702 21.685-34.934 37.591-59.565 37.44-8.849-.061-17.751-2.068-26.494-.584-6.056 1.038-11.748 3.727-17.41 6.249-28.924 12.944-63.843 21.844-91.23 5.9-16.063-9.354-28.5-26.721-46.932-28.698-11.453-1.227-22.481 3.938-33.17 8.24-15.381 6.189-32.39 10.854-48.4 6.552-16.843-4.544-29.348-18.125-37.69-33.803-2.09-3.921-3.936-7.969-5.525-12.119-12.922-33.622-12.02-74.174 9.356-103.16C33.956 30.955 59.542 18.02 85.278 9.233 144.36-10.93 202.019 8.74 262.84 5.302c16.479-.932 33.586-2.454 48.983 3.484 12.255 4.719 22.323 13.785 31.263 23.404 16.774 18.05 30.854 39.143 37.666 62.828 2.467 8.555 3.873 17.382 4.186 26.282.53 15.83-2.566 31.682-10.06 45.573z" opacity=".19"/>
        <path fill="#007BFF" d="M374.879 166.874c-11.702 21.685-34.934 37.59-59.565 37.439-8.849-.061-17.751-2.068-26.494-.583-6.056 1.037-11.748 3.726-17.41 6.248-28.924 12.945-63.843 21.844-91.23 5.901-16.062-9.354-28.499-26.722-46.931-28.699-11.453-1.227-22.482 3.939-33.171 8.241-15.381 6.188-32.39 10.854-48.4 6.551-16.842-4.544-29.347-18.124-37.69-33.803 6.382-2.924 14.012-1.378 21.075-.379 21.392 3.008 43.198.128 63.078-8.331 21.111-9.044 43.147-24.048 67.188-18.58 23.466 5.302 45.736 23.404 70.837 19.693 9.348-1.378 17.819-6.271 25.35-11.967 16.858-12.755 30.165-29.85 47.568-41.847 17.403-11.998 41.777-17.989 59.316-6.188 7.463 5.021 12.641 12.535 16.532 20.76.537 15.8-2.559 31.653-10.053 45.544z" opacity=".19"/>
        <path fill="#007BFF" d="M285.474 84.338l18.712 29.539-14.193 8.688-18.591 4.052 14.072-42.28z"/>
        <path fill="url(#prefix__paint0_linear)" d="M285.474 84.338l18.712 29.539-14.193 8.688-18.591 4.052 14.072-42.28z"/>
        <path fill="url(#prefix__paint1_linear)" d="M156.101 209.001c.205.038 8.44 55.17 8.44 55.17s5.988 1.439 5.776 0c-.212-1.439.825-19.072 2.051-22.556 1.227-3.484-2.27-32.614-2.27-32.614h-13.997z"/>
        <path fill="url(#prefix__paint2_linear)" d="M182.822 208.63s1.234 27.858 3.687 34.841c2.452 6.984 5.533 21.352 5.533 21.352h7.57l-1.393-56.776s-8.629-5.718-15.397.583z"/>
        <path fill="#007BFF" d="M162.975 260.46c1.877-.242 3.784.561 5.654.356.781-.183 1.583-.262 2.385-.235.125.009.244.063.333.152.069.107.099.236.083.363v2.5c0 1.204 0 2.522-.757 3.469-.757.947-2.165 1.287-3.429 1.393-.408.063-.826.029-1.219-.098-.383-.188-.72-.46-.984-.795-.84-.917-1.476-1.447-1.589-2.682-.016-.393-.417-4.423-.477-4.423zM199.014 261.558c.129-.03.263-.028.391.007.128.036.245.102.34.194.096.092.167.206.207.332.04.126.048.261.023.391.092 1.792-.025 3.59-.348 5.355-.04.474-.168.937-.379 1.363-.545.955-1.763 1.242-2.853 1.303-1.658.106-3.535-.204-4.542-1.515-.494-.813-.797-1.727-.886-2.673-.174-.985-.522-1.932-.681-2.909-.144-.841.076-1.25.931-1.371 1.204-.182 2.46-.204 3.679-.28 1.385-.106 2.755-.167 4.118-.197z"/>
        <path fill="#25233A" d="M149.584 281.66c-.08.468-.033.95.136 1.394.201.384.48.723.819.994.339.271.73.469 1.149.581 2.756.947 11.188-4.802 13.853-5.976 2.343-.987 4.587-2.196 6.699-3.613.212-.151-.341-7.574-.492-8.703.002-.085-.013-.17-.044-.249-.031-.079-.078-.152-.138-.213-.11-.065-.235-.102-.363-.106-1.272-.106-2.551 0-3.83 0-.655.01-1.309-.017-1.961-.083-.583-.166-1.182-.275-1.786-.326-.969.106-2.831 3.151-3.672 3.621-9.605 5.385-10.113 10.876-10.37 12.679zM190.203 272.973c-.185.719-.246 1.464-.182 2.204.219 1.143 1.211 1.962 2.142 2.666 1.703 1.28 10.984 10.558 16.381 7.574.339-.231.603-.558.757-.939.197-.435.312-.902.34-1.379.192-2.075-.26-4.159-1.294-5.968-.924-1.591-6.464-6.446-7.025-8.195-.34-1.061-.446-2.356-1.392-2.954-.128-.093-.282-.143-.44-.144-.239.031-.463.134-.643.295-1.65 1.106-3.785.818-5.677.546-.553-.084-1.726-.758-2.18-.455-.674.47-.591 2.348-.621 3.03.018 1.242-.038 2.483-.166 3.719z"/>
        <path fill="url(#prefix__paint3_linear)" d="M202.375 79.407s25.691-16.012 26.1-16.36c.408-.349 26.372-21.465 29.332-24.427 2.96-2.961 5.216-7.998 9.356-6.362 4.141 1.636 4.232 8.096-1.044 13.982-.629.704-4.739.613-4.89.802-.356.425-1.121 1.25-3.414 3.788-2.294 2.537-16.336 17.776-24.496 21.684-8.16 3.909-23.965 20.746-23.965 20.746l-6.979-13.853z"/>
        <path fill="url(#prefix__paint4_linear)" d="M147.631 81.497c-1.037 1.212-24.004-11.724-24.004-11.724L96.521 42.195s-4.663-4.067-7.971 1.515 5.003 11.028 5.003 11.028l5.428.879s13.156 21.889 16.403 22.987c3.247 1.098 27.062 20.45 27.289 17.92.227-2.53 4.958-15.027 4.958-15.027z"/>
        <path fill="#25233A" d="M158.91 56.685c-.712 7.21.575 14.974 5.298 20.45 1.113 1.303 2.468 2.59 2.665 4.295.026.841-.027 1.683-.159 2.514-.061.417-.035.841.078 1.247.112.405.307.783.573 1.109.143.15.318.265.511.339.193.073.401.103.607.088.206-.016.406-.078.586-.18.18-.103.335-.244.453-.414l1.923 4.068c.136.393.403.727.757.946.332.106.689.106 1.022 0 2.149-.396 4.188-1.248 5.98-2.5.22-.186.478-.32.757-.393 1.249-.197 1.514 1.931 2.717 2.393.909.356 1.832-.431 2.491-1.15l2.619-2.841c.447.949 1.221 1.704 2.18 2.128.29-.806.684-1.57 1.173-2.272-.104 1.406.044 2.82.439 4.173l1.325-1.643c.121-.16.28-.334.484-.319.137.026.262.095.356.198l2.165 1.916c-1.12-3.31-.621-6.93.167-10.324.787-3.393 1.854-6.817 1.847-10.27 0-4.477-1.787-8.733-3.528-12.876-.709-1.92-1.677-3.735-2.876-5.393-1.772-2.272-4.3-3.712-6.813-5.037-2.145-1.258-4.495-2.13-6.941-2.575-1.916-.183-3.847-.12-5.746.19-2.018.241-4.049.494-6.093.757-1.756.25-2.544.348-3.664 1.726-2.203 2.773-3.02 6.272-3.353 9.65z"/>
        <path fill="url(#prefix__paint5_linear)" d="M191.406 66.592c.116.625.017 1.271-.28 1.833-.298.557-.637 1.091-1.014 1.598-.296.483-.633.939-1.007 1.363-.379.43-.906.7-1.476.758-2.135.068-1.302-3.507-.591-4.628.78-1.31 3.725-3.552 4.368-.924z"/>
        <path fill="url(#prefix__paint6_linear)" d="M188.454 68.076c.169-.25.313-.517.432-.795.118-.283.322-.521.582-.682.13-.077.282-.109.431-.09.15.02.289.088.394.196.243.303.084.758-.106 1.076-.439.757-.423 1.984-1.112 2.544-.349.237-.725.43-1.121.576-.497.123-1.016.123-1.513 0-.205-.151.257-1.174.234-1.431-.023-.258 0-.637.083-.758.084-.121.447 0 .598 0 .217-.025.427-.094.615-.204.189-.11.354-.256.483-.432z"/>
        <path fill="#007BFF" d="M56.152 90.51l-19.825 23.958 29.484 26.214 8.38-7.574 2.807-40.242c.106-1.12-20.846-2.355-20.846-2.355z"/>
        <path fill="url(#prefix__paint7_linear)" d="M56.152 90.51l-19.825 23.958 29.484 26.214 8.38-7.574 2.807-40.242c.106-1.12-20.846-2.355-20.846-2.355z"/>
        <path fill="#007BFF" d="M209.99 91.988c-.084.48-.304.924-.636 1.28-1.227 1.696-2.578 3.299-4.042 4.794-2.271 2.205-5.064 3.977-6.571 6.757-2.15 3.976-.492 40.658-.333 47.194.046 1.871-28.969 3.03-41.686 1.644.167-6.718 4.004-18.413 2.627-24.995-1.113-5.302-1.953-2.318-4.83-10.96-1.181-3.529-.302-7.786.326-11.459.416-2.477-10.719-6.953-12.172-9.695.087-1.785.325-3.558.711-5.302.657-2.988 1.736-5.867 3.202-8.551.214-.5.576-.924 1.037-1.212.557-.206 1.165-.227 1.734-.06 4.382.791 8.664 2.061 12.77 3.786 3.845 1.606 7.842.917 11.892.371 10.062-1.355 19.851-4.273 29.014-8.65 2.2 4.596 4.401 9.188 6.601 13.778.231.387.354.83.356 1.28z"/>
        <path fill="url(#prefix__paint8_linear)" d="M209.99 91.988c-.084.48-.304.924-.636 1.28-1.227 1.697-2.578 3.3-4.042 4.795-2.271 2.204-5.064 3.976-6.571 6.756-2.15 3.976-.492 40.658-.333 47.195.038 1.62-21.717 2.703-35.812 2.067l23.633-1.81s10.022-35.189 7.509-44.566c-2.271-8.476 7.569-18.322 13.686-21.579l2.218 4.628c.22.374.34.8.348 1.234z"/>
        <path fill="url(#prefix__paint9_linear)" d="M173.935 80.225c-.083-1.09-.242-2.272.303-3.212.613-.816 1.469-1.415 2.445-1.711 1.802-.758 4.02-1.477 5.579-.303.843.754 1.395 1.78 1.559 2.9.467 2.343.602 4.74.402 7.12-.122 2.09-.402 4.31-1.749 5.908-.914.95-1.998 1.72-3.194 2.272-1.62.864-3.74 1.69-5.148.508-4.208-3.477.121-9.066-.197-13.482z"/>
        <path fill="#007BFF" d="M156.722 153.657l-9.492 57.268s9.719 1.787 32.193-.841c12.566-1.462 21.657-1.03 27.251-.364.726.087 1.461-.004 2.143-.266.683-.261 1.291-.686 1.772-1.235.482-.55.822-1.209.992-1.92.17-.711.164-1.453-.017-2.161l-13.133-52.125s-38.492-3.757-41.709 1.644z"/>
        <path fill="url(#prefix__paint10_linear)" d="M206.652 209.721c-2.309-.281-5.216-.508-8.721-.584-6.183-.111-12.367.205-18.508.947-22.474 2.628-32.193.841-32.193.841l9.492-57.268c2.036-3.424 18.235-3.166 29.825-2.523h.143c5.973.334 10.689.758 11.567.856h.151v.046l.205.818 12.913 51.262c.185.708.195 1.451.027 2.164-.167.712-.505 1.373-.985 1.926-.481.552-1.088.979-1.771 1.243-.682.264-1.419.357-2.145.272z"/>
        <path fill="#007BFF" d="M88.058 48.247L72.116 81.24h1.446L88.55 49.11s.287-.863-.492-.863zM88.55 82.657l5.003-27.88 1.159.189-4.92 28.834s-1.159 1-1.242-1.143z"/>
        <path fill="#007BFF" d="M56.492 79.627s28.008-3.97 42.012 9.293l3.58 3.878-11.861 31.054s-6.556 4.62-12.869 3.318c-6.313-1.303-18.076-4.371-18.076-4.371s-3.785-1.211-3.785-6.991c0-5.779 1-36.181 1-36.181z"/>
        <path fill="url(#prefix__paint11_linear)" d="M56.492 79.627s28.008-3.97 42.012 9.293l3.58 3.878-11.861 31.054s-6.556 4.62-12.869 3.318c-6.313-1.303-18.076-4.371-18.076-4.371s-3.785-1.211-3.785-6.991c0-5.779 1-36.181 1-36.181z"/>
        <path fill="#007BFF" d="M261.229 47.043l-6.117 41.423h.894l6.139-41.423h-.916zM266.119 46.24l7.092 34.243 1.325-.235-7.721-34.849-.696.841z"/>
        <path fill="#007BFF" d="M249.632 91.64s17.41-14.823 32.095-11.157h4.754s-2.884 28.108-1.923 35.091c.962 6.984-20.786 14.308-22.421 13.922-1.635-.387-7.789.386-8.561-8.665-.772-9.051-3.944-29.19-3.944-29.19z"/>
        <path fill="url(#prefix__paint12_linear)" d="M249.632 91.64s17.41-14.823 32.095-11.157h4.754s-2.884 28.108-1.923 35.091c.962 6.984-20.786 14.308-22.421 13.922-1.635-.387-7.789.386-8.561-8.665-.772-9.051-3.944-29.19-3.944-29.19z"/>
        <path fill="#007BFF" d="M88.55 49.11l-2.816 39.386h1.408l2.27-39.385s-.605-1.038-.862 0zM90.722 52.375l8.266 35.379 1.779-.5-9-33.88-1.045-.999z"/>
        <path fill="#007BFF" d="M77.324 88.247l9.826.22 20.188-2.31 10.37 39.877-28.265 14.626-15.586-2.712 3.467-49.701z"/>
        <path fill="url(#prefix__paint13_linear)" d="M89.443 140.659L87.15 88.466l-9.826-.22-3.467 49.702 15.586 2.711z"/>
        <path fill="#007BFF" d="M258.625 96.593l4.867.871 8.486 1.924 17.395-8.286-14.837-1.977-15.911 7.468z"/>
        <path fill="url(#prefix__paint14_linear)" d="M258.952 96.468l4.867.871 8.486 1.924 17.395-8.286L274.863 89l-15.911 7.468z"/>
        <path fill="#007BFF" d="M289.373 91.102l-17.395 8.286-13.353-2.795 1.688 37.333 11.665 4.022 18.121-9.801-.726-37.045z"/>
        <path fill="url(#prefix__paint15_linear)" d="M166.971 75.415c2.158 4.037 6.813 7.128 11.256 5.923 3.308-.901 5.625-3.908 7.04-7.028 1.217-2.885 2.12-5.891 2.695-8.968.643-2.947 1.211-5.991.651-8.953-.64-2.867-2.284-5.41-4.634-7.172-2.35-1.761-5.252-2.624-8.181-2.432-13.156 1.273-13.573 19.723-8.827 28.63z"/>
        <path fill="#25233A" d="M173.413 37.659c5.344-1.136 11.355-.174 15.427 3.439 4.073 3.613 5.957 9.589 10.325 13.042 1.408 1.114 3.263 1.954 4.981 1.424-.477 1.009-1.226 1.864-2.162 2.47-.936.606-2.022.94-3.137.961.732.75 1.661 1.275 2.68 1.515-.565.729-1.281 1.326-2.099 1.75-.819.423-1.719.664-2.64.704.459.353.772.863.878 1.432-1.839.947-4.042.856-6.055.424-1.702-.372-3.31-1.086-4.726-2.101-1.416-1.014-2.61-2.307-3.51-3.8-4.315-7.627-11.869-13.209-17.895-3.65-1.877-1.25-3.876-2.689-4.186-4.916-.878-6.604 6.578-11.52 12.119-12.694z"/>
        <path fill="#007BFF" d="M262.145 47.043v50.421h1.347l-.674-50.58-.673.159zM264.476 46.732l13.731 44.907h1.272l-14.042-45.074-.961.167z"/>
        <path fill="url(#prefix__paint16_linear)" d="M271.978 99.388v38.56l-7.502-5.158-.984-35.326 8.486 1.924z"/>
        <path fill="url(#prefix__paint17_linear)" d="M260.313 133.926l4.163-1.136-.984-35.326-4.867-.871 1.688 37.333z"/>
        <path fill="url(#prefix__paint18_linear)" d="M289.373 91.102l-17.395 8.286v38.56l7.501-4.052 9.894-42.794z"/>
        <path fill="url(#prefix__paint19_linear)" d="M155.172 106.125c.416-2.477-10.719-6.953-12.172-9.695.088-1.784.326-3.558.712-5.302 0 0 11.763 5.143 12.406 8.127.644 2.984-.946 6.87-.946 6.87z"/>
        <path fill="url(#prefix__paint20_linear)" d="M206.652 209.721c-2.309-.28-5.216-.508-8.721-.583l-9.083-32.13s-2.968-23.381-2.271-25.873h.144l11.566.856h.151v.045l.205.818 12.914 51.262c.186.711.195 1.457.027 2.172-.169.716-.51 1.379-.994 1.932-.484.553-1.096.979-1.783 1.241-.686.261-1.426.351-2.155.26z"/>
    </g>
    <defs>
        <linearGradient id="prefix__paint0_linear" x1="298.63" x2="279.006" y1="91.503" y2="130.735" gradientUnits="userSpaceOnUse">
            <stop stop-opacity="0"/>
            <stop offset=".88" stop-opacity=".8"/>
            <stop offset=".97"/>
        </linearGradient>
        <linearGradient id="prefix__paint1_linear" x1="156.101" x2="172.633" y1="236.904" y2="236.904" gradientUnits="userSpaceOnUse">
            <stop stop-color="#ECC4D7"/>
            <stop offset=".42" stop-color="#EFD4D1"/>
            <stop offset="1" stop-color="#F2EAC9"/>
        </linearGradient>
        <linearGradient id="prefix__paint2_linear" x1="4273.75" x2="4646.48" y1="22237.2" y2="22237.2" gradientUnits="userSpaceOnUse">
            <stop stop-color="#ECC4D7"/>
            <stop offset=".42" stop-color="#EFD4D1"/>
            <stop offset="1" stop-color="#F2EAC9"/>
        </linearGradient>
        <linearGradient id="prefix__paint3_linear" x1="18475.6" x2="24549.7" y1="8894.12" y2="8894.12" gradientUnits="userSpaceOnUse">
            <stop stop-color="#ECC4D7"/>
            <stop offset=".42" stop-color="#EFD4D1"/>
            <stop offset="1" stop-color="#F2EAC9"/>
        </linearGradient>
        <linearGradient id="prefix__paint4_linear" x1="7157.13" x2="11890.2" y1="8588.96" y2="8588.96" gradientUnits="userSpaceOnUse">
            <stop stop-color="#ECC4D7"/>
            <stop offset=".42" stop-color="#EFD4D1"/>
            <stop offset="1" stop-color="#F2EAC9"/>
        </linearGradient>
        <linearGradient id="prefix__paint5_linear" x1="1473.97" x2="1509.62" y1="1099.09" y2="1099.09" gradientUnits="userSpaceOnUse">
            <stop stop-color="#ECC4D7"/>
            <stop offset=".42" stop-color="#EFD4D1"/>
            <stop offset="1" stop-color="#F2EAC9"/>
        </linearGradient>
        <linearGradient id="prefix__paint6_linear" x1="1194.33" x2="1253.51" y1="750.339" y2="773.034" gradientUnits="userSpaceOnUse">
            <stop stop-color="#ECC4D7"/>
            <stop offset=".42" stop-color="#EFD4D1"/>
            <stop offset="1" stop-color="#F2EAC9"/>
        </linearGradient>
        <linearGradient id="prefix__paint7_linear" x1="2093.93" x2="4432.96" y1="11259.6" y2="10779.2" gradientUnits="userSpaceOnUse">
            <stop stop-opacity="0"/>
            <stop offset=".88" stop-opacity=".8"/>
            <stop offset=".97"/>
        </linearGradient>
        <linearGradient id="prefix__paint8_linear" x1="10037.5" x2="15912.1" y1="13828" y2="15836.5" gradientUnits="userSpaceOnUse">
            <stop stop-opacity="0"/>
            <stop offset=".88" stop-opacity=".8"/>
            <stop offset=".97"/>
        </linearGradient>
        <linearGradient id="prefix__paint9_linear" x1="3021.04" x2="3274.16" y1="3506.25" y2="3695.65" gradientUnits="userSpaceOnUse">
            <stop stop-color="#ECC4D7"/>
            <stop offset=".42" stop-color="#EFD4D1"/>
            <stop offset="1" stop-color="#F2EAC9"/>
        </linearGradient>
        <linearGradient id="prefix__paint10_linear" x1="7002.62" x2="18681.8" y1="18921.8" y2="18152.8" gradientUnits="userSpaceOnUse">
            <stop stop-opacity="0"/>
            <stop offset=".88" stop-opacity=".8"/>
            <stop offset=".97"/>
        </linearGradient>
        <linearGradient id="prefix__paint11_linear" x1="3541.91" x2="5813.2" y1="9020.76" y2="10115.5" gradientUnits="userSpaceOnUse">
            <stop stop-opacity="0"/>
            <stop offset=".88" stop-opacity=".8"/>
            <stop offset=".97"/>
        </linearGradient>
        <linearGradient id="prefix__paint12_linear" x1="12751.4" x2="14405.2" y1="8787.44" y2="10148.9" gradientUnits="userSpaceOnUse">
            <stop stop-opacity="0"/>
            <stop offset=".88" stop-opacity=".8"/>
            <stop offset=".97"/>
        </linearGradient>
        <linearGradient id="prefix__paint13_linear" x1="1243.11" x2="2646.31" y1="7088.55" y2="7300.4" gradientUnits="userSpaceOnUse">
            <stop stop-opacity="0"/>
            <stop offset=".88" stop-opacity=".8"/>
            <stop offset=".97"/>
        </linearGradient>
        <linearGradient id="prefix__paint14_linear" x1="11388.8" x2="11388.8" y1="1106.16" y2="1557.02" gradientUnits="userSpaceOnUse">
            <stop stop-opacity="0"/>
            <stop offset=".88" stop-opacity=".8"/>
            <stop offset=".97"/>
        </linearGradient>
        <linearGradient id="prefix__paint15_linear" x1="6037.3" x2="5662" y1="4446.37" y2="5819.56" gradientUnits="userSpaceOnUse">
            <stop stop-color="#ECC4D7"/>
            <stop offset=".42" stop-color="#EFD4D1"/>
            <stop offset="1" stop-color="#F2EAC9"/>
        </linearGradient>
        <linearGradient id="prefix__paint16_linear" x1="3424.79" x2="3031.82" y1="6077.33" y2="6110.98" gradientUnits="userSpaceOnUse">
            <stop stop-color="#007BFF"/>
            <stop offset=".88" stop-color="#007BFF"/>
            <stop offset=".97" stop-color="#297DD7"/>
        </linearGradient>
        <linearGradient id="prefix__paint17_linear" x1="2354.58" x2="2106.64" y1="5412.44" y2="5440.15" gradientUnits="userSpaceOnUse">
            <stop stop-color="#007BFF"/>
            <stop offset=".88" stop-color="#007BFF"/>
            <stop offset=".97" stop-color="#0C6ACE"/>
        </linearGradient>
        <linearGradient id="prefix__paint18_linear" x1="260.858" x2="326.967" y1="93.798" y2="162.858" gradientUnits="userSpaceOnUse">
            <stop stop-color="#fff" stop-opacity="0"/>
            <stop offset=".84" stop-color="#fff" stop-opacity=".84"/>
            <stop offset=".97" stop-color="#fff"/>
        </linearGradient>
        <linearGradient id="prefix__paint19_linear" x1="3037.13" x2="2486.12" y1="2808.55" y2="3093.19" gradientUnits="userSpaceOnUse">
            <stop stop-color="#007BFF"/>
            <stop offset=".88" stop-opacity=".8"/>
            <stop offset=".97" stop-color="#0E71DB"/>
        </linearGradient>
        <linearGradient id="prefix__paint20_linear" x1="5757.56" x2="7318.03" y1="17895" y2="17853.3" gradientUnits="userSpaceOnUse">
            <stop stop-opacity="0"/>
            <stop offset=".88" stop-opacity=".8"/>
            <stop offset=".97"/>
        </linearGradient>
        <clipPath id="prefix__clip0">
            <path fill="#fff" d="M0 0H385V286H0z"/>
        </clipPath>
    </defs>
</svg>
